<svg xmlns="http://www.w3.org/2000/svg" xmlns:xlink="http://www.w3.org/1999/xlink" width="496" height="440" viewBox="0 0 496 440">
    <defs>
        <circle id="a" cx="55" cy="55" r="55"/>
    </defs>
    <g fill="none" fill-rule="evenodd">
        <path fill="#FF825C" fill-rule="nonzero" d="M93.315 270.652c14.19-2.934 29.175-5.847 42.882-1.132a36.154 36.154 0 0 1 21.525 19.576c3.877 9.222 5.952 30.034-50.72 33.366-11.465.671-54.284-3.5-63.36-7.356-16.767-7.084-21.336-11.842-4.003-24.438 12.01-8.72 38.795-16.914 53.676-20.016zM336.166 366.958c21.818-1.153 40.031-20.959 42.735-42.63 2.704-21.672-8.006-43.196-24.438-57.26a79.371 79.371 0 0 1 17.626 15.195c11.758 13.477 19.932 29.657 30.223 44.286 10.291 14.63 23.684 28.295 40.954 32.948 4.8 1.3-.587 21.65-14.294 23.851-14.88 2.41-44.58.629-60.655-.985-21.735-2.2-43.553-9.075-60.278-23.055-.189-.146-.335-.314-.503-.46a49.526 49.526 0 0 0 28.63 8.11z"/>
        <path fill="#000" fill-rule="nonzero" d="M437.728 357.697c10.207 2.662 17.338 3.015 27.587 5.656a4.045 4.045 0 0 1 2.41 1.32c.86 1.342-.168 3.06-1.195 4.192-8.174 9.62-23.62 10.92-35.336 15.594 5.773-4.795 7.951-13.715 6.534-26.762zM16.499 307.666l-8.134-10.233c8.483-6.907 20.96-5.629 27.866 2.855 6.906 8.483 5.628 20.959-2.855 27.865l-7.973-9.562-.67-9.47-8.234-1.455z"/>
        <path fill="#FFAB91" fill-rule="nonzero" d="M393.405 252.208c39.528 40.535 46.11 112.382 7.293 153.566-26.135 27.708-66.921 34.54-105.004 33.534-48.205-1.194-79.644-13.225-112.905-31.836-32.927-18.486-59.419-47.996-77.548-81.111-7.671-14-34.687-60.278-29.7-75.452 6.96-21.085 51.958-2.473 72.435-11.067 73.86-30.872 181.776-57.07 245.429 12.366z"/>
        <path fill="#F57852" d="M310.141 224.836a5.22 5.22 0 0 0 3.344 6.56c18.007 5.902 32.665 12.556 43.975 19.964 11.146 7.3 22.273 17.652 33.38 31.054a5.32 5.32 0 0 0 7.704.515 6.215 6.215 0 0 0 .655-8.43c-10.815-13.637-22.727-24.69-35.734-33.158-13.187-8.585-28.715-15.305-46.584-20.16a5.551 5.551 0 0 0-6.74 3.655z"/>
        <g transform="translate(320 168)">
            <mask id="b" fill="#fff">
                <use xlink:href="#a"/>
            </mask>
            <use fill="#F1C43D" xlink:href="#a"/>
            <g fill="#FFF" mask="url(#b)">
                <path d="M66.438 82.826C80.297 77.609 88.541 63.33 86.13 48.72l-26.897 7.212 7.206 26.894z"/>
                <path fill-rule="nonzero" d="M60.562 84.405l-7.209-26.903-26.897 7.212-8.818 2.363c6.567 18.703 25.806 29.81 45.287 26.147l-2.363-8.819zM48.56 65.706l2.951 11.131-14.066-8.121 11.115-3.01z"/>
                <path d="M71.03 26.901a31.04 31.04 0 0 0-46.144 31.935l59.67-15.989a30.912 30.912 0 0 0-13.527-15.946z"/>
            </g>
        </g>
        <path fill="#FFAB91" d="M304.474 234.463a7.295 7.295 0 0 0 2.403 7.793c12.344 9.954 23.8 18.262 34.367 24.922 10.545 6.647 23.271 13.772 38.178 21.377a7.503 7.503 0 0 0 8.593-1.259 5.807 5.807 0 0 0 .474-7.886c-10.327-12.565-21.635-22.697-33.926-30.397-12.46-7.806-27.077-13.83-43.852-18.076a5.187 5.187 0 0 0-6.237 3.526z"/>
        <g fill="#FFF" fill-rule="nonzero" transform="translate(.542)">
            <circle cx="174.808" cy="174.808" r="174.808" opacity=".3"/>
            <path d="M328.137 229.224c4.29-31.132 1.861-62.757-7.288-94.875-.94-3.3.49-6.815 3.467-8.521a4.5 4.5 0 0 1 6.604 2.82c10.807 43.583 9.879 77.108-2.783 100.576zM154.065 10.606c66.996-4.536 121.821 25.287 164.474 89.47a6.668 6.668 0 0 1-1.701 9.133 6.373 6.373 0 0 1-8.87-1.5c-42.095-59.002-93.396-91.37-153.903-97.103z" opacity=".5"/>
        </g>
        <path fill="#FFDFD2" fill-rule="nonzero" d="M152.608 59.344c-18.863 3.878-46.403 13.498-55.457 28.672 1.257 0 5.197.126 10.479.21a357.748 357.748 0 0 1 51.307-26.367 5.386 5.386 0 0 0-6.33-2.515z"/>
        <path fill="#FFAB91" fill-rule="nonzero" d="M149.632 93.717a132.355 132.355 0 0 1 8.95-24.585 8.174 8.174 0 0 0 .355-7.273 357.748 357.748 0 0 0-51.39 26.367c15.823.21 43.258.86 42.085 5.491z"/>
        <path fill="#FDC6B7" fill-rule="nonzero" d="M230.491 125.952a42.924 42.924 0 0 0 .21 17.69 266.283 266.283 0 0 0 17.899 57.95c3.185 7.357 7.188 16.672 13.434 16.253 4.968-.399 30.23-18.57 36.474-23.082 18.393-13.29 31.1-26.816 38.397-50.325-18.59-24.858-78.329-30.118-106.414-18.486z"/>
        <path fill="#FF825C" fill-rule="nonzero" d="M329.585 145.087c-5.387 23.6-47.43 49.4-61.221 60.907a774.012 774.012 0 0 0-6.959-32.319c-2.095-8.803-6.916-19.24-7.147-29.342 4.632-3.165 76.815-5.764 75.327.754z"/>
        <path fill="#FDC6B7" fill-rule="nonzero" d="M331.932 144.354c-6.287 22.258-46.696 46.55-59.188 60.78-1.278 1.447-2.766 2.914-3.92 2.369-.837-.398-1.236-1.824-1.571-3.144-2.096-8.384-13.477-47.744-7.776-54.325 4.192-4.884 46.927-6.414 51.182-6.644a105.612 105.612 0 0 1 21.273.964z" opacity=".41"/>
        <path fill="#FF825C" fill-rule="nonzero" d="M62.988 255.122c19.051 16.306 43.846 24.836 68.011 32.653 28.21 9.097 58.685 17.837 86.75 9.788 25.15-7.189 44.285-27.624 52.25-51.223 7.964-23.6 5.575-49.945-3.29-73.797-3.229 30.852-27.54 57.155-57.868 68.305-30.328 11.15-65.476 8.384-96.411-3.101a201.75 201.75 0 0 1-35.316-17.417c-7.524-4.632-19.702-18.172-29.154-15.552-23.684 6.581 6.476 43.008 15.028 50.344z" opacity=".7"/>
        <path fill="#FFDFD2" fill-rule="nonzero" d="M65.083 165.103a14.525 14.525 0 1 1-28.064-7.482 14.525 14.525 0 1 1 28.064 7.482z"/>
        <path fill="#FE8F6B" fill-rule="nonzero" d="M265.66 162.169a107.896 107.896 0 0 1-.21 54.85c-16.243 60.927-75.892 73.041-140.864 55.708-43.616-11.653-78.512-33.534-91.842-65.245 8.383 38.522 46.633 64.847 95.908 77.988 64.972 17.333 124.6 5.219 140.865-55.709a108.777 108.777 0 0 0-3.857-67.592z"/>
        <path fill="#FFDFD2" fill-rule="nonzero" d="M177.15 89.525a115.756 115.756 0 0 1 27.038 11.067 111.774 111.774 0 0 0-45.355-21.672C99.603 67.833 43.18 115.137 32.325 172.46a64.973 64.973 0 0 0-1.07 10.689 102.51 102.51 0 0 1 2.998-16.16c16.264-60.927 81.886-93.77 142.898-77.464z"/>
        <path fill="#FFB7A4" fill-rule="nonzero" d="M221.395 108.996c-24.128-16.04-27.97-18.014-42.148-22.782-64.973-17.333-128.814 19.848-145.078 80.775-1.426 5.302-2.913 11.633-3.442 21.557-2.073 52.196 7.676 74.435 97.84 96.924 65.246 16.264 124.602 5.219 140.866-55.709 12.072-44.957-8.698-96.096-48.038-120.765z"/>
        <path fill="#FFF" fill-rule="nonzero" d="M192.618 209.054c-3.312 11.362-15.169 17.925-26.556 14.7-11.387-3.225-18.04-15.031-14.903-26.442 3.137-11.412 14.892-18.156 26.327-15.107 11.59 3.238 18.365 15.257 15.132 26.849z" opacity=".2"/>
        <path fill="#FF825C" fill-rule="nonzero" d="M148.039 359.56l-23.286-.692a73.754 73.754 0 0 0 61.787 4.82c5.89-2.242 11.884-5.637 14.525-11.36 16.138-35.042-50.574 7.316-53.026 7.232z"/>
        <path fill="#FFAB91" fill-rule="nonzero" d="M132.676 308.609c14.168-2.956 29.175-5.848 42.86-1.132a36.154 36.154 0 0 1 21.61 19.575c3.856 9.243 5.93 30.056-50.742 33.367-11.444.67-54.284-3.416-63.359-7.252-16.767-7.084-21.336-11.862-4.003-24.438 12.01-8.824 38.795-17.04 53.634-20.12z"/>
        <path fill="#000" fill-rule="nonzero" d="M56.82 346.866l-8.488-9.922c8.237-7.198 20.75-6.356 27.948 1.88 7.199 8.238 6.357 20.751-1.88 27.95l-8.302-9.28-1.004-9.377-8.275-1.25z"/>
        <path fill="#FFAB91" fill-rule="nonzero" d="M407.07 372.506c2.683-21.671-7.985-43.196-24.522-57.26a79.371 79.371 0 0 1 17.626 15.196c11.78 13.455 19.932 29.636 30.223 44.265 10.29 14.63 23.684 28.315 40.954 32.968 4.8 1.279-.566 21.65-14.273 23.852-14.881 2.41-44.58.628-60.655-1.006-21.756-2.096-43.574-9.055-60.299-23.055l-.503-.44a49.526 49.526 0 0 0 28.714 8.11c21.818-1.152 40.052-20.958 42.735-42.63z"/>
        <path fill="#000" fill-rule="nonzero" d="M465.224 405.585c10.207 2.542 17.031 3.09 27.26 5.613.938.121 1.797.57 2.41 1.26.88 1.262-.168 2.923-1.195 4.004-8.153 9.167-23.62 10.428-35.337 14.872 7.17-5.389 9.458-13.972 6.862-25.749zM163.674 155.609a6.288 6.288 0 1 1-7.818 4.527 6.392 6.392 0 0 1 7.818-4.527zM56.323 130.898a5.24 5.24 0 1 1-2.742 10.115 5.24 5.24 0 0 1 2.742-10.115z"/>
        <path fill="#FFDFD2" fill-rule="nonzero" d="M58.272 168.561a329.454 329.454 0 0 1 11.087-30.516c1.698-4.066 3.647-8.383 7.273-10.836 6.287-4.38 35.63 1.824 42.17 5.575a53.948 53.948 0 0 1 10.31 7.168c-2.598-3.835-6.937-7.314-13.874-11.234-6.937-3.919-35.944-9.955-42.19-5.575-3.626 2.473-5.575 6.77-7.273 10.857a329.454 329.454 0 0 0-11.087 30.516 12.91 12.91 0 0 0 4.674 14.106 12.806 12.806 0 0 1-1.09-10.06z"/>
        <path fill="#FF9076" fill-rule="nonzero" d="M87.97 182.583c10.836.503 22.406-2.935 29.154-11.423a34.75 34.75 0 0 0 6.707-20.141 81.342 81.342 0 0 0-1.194-15.93 80.48 80.48 0 0 0-3.836-2.305c-6.623-3.751-35.965-9.955-42.253-5.575-3.542 2.6-5.491 6.791-7.189 10.836a329.454 329.454 0 0 0-11.087 30.516 12.575 12.575 0 0 0-.252 6.288c9.704 3.668 19.618 7.23 29.95 7.734z"/>
        <path fill="#FF825C" fill-rule="nonzero" d="M129.93 177.427c2.096-19.387 4.758-29.343-.817-37.475a46.424 46.424 0 0 0-6.455-4.862 81.342 81.342 0 0 1 1.194 15.929 34.75 34.75 0 0 1-6.707 20.141c-6.748 8.384-18.318 11.926-29.153 11.423-10.333-.503-20.247-4.066-29.95-7.734.25 1.312.702 2.578 1.34 3.752a12.575 12.575 0 0 0 3.899 2.095l37.915 11.884c4.422 1.383 9.054 2.767 13.581 1.928a19.953 19.953 0 0 0 15.153-17.081z"/>
        <path fill="#000" fill-rule="nonzero" d="M81.683 142.824c-2.096 5.68-4.737 9.892-6.12 9.41-1.383-.482-.901-5.491 1.09-11.17 1.99-5.68 4.715-9.893 6.183-9.411 1.467.482.838 5.49-1.153 11.17zM98.366 146.869c-1.11 5.91-3.186 10.48-4.632 10.228-1.446-.252-1.718-5.303-.608-11.213 1.111-5.91 3.165-10.48 4.611-10.228 1.447.251 1.719 5.281.63 11.213zM74.787 210.311c6.288-1.404 10.899 5.45 9.16 13.624-2.096 9.494-11.004 14-15.95 8.027-5.47-6.602-1.3-19.848 6.79-21.65z"/>
        <path fill="#000" fill-rule="nonzero" d="M198.11 334.178c116.531-18.863 143.023-116.74 143.023-116.74l11.171 4.925c-12.258 78.32-79.742 136.036-159.015 136.002-5.938-.01-11.87-.339-17.773-.985 6.623-1.698 15.468-7.168 22.594-23.202z" opacity=".12" style="mix-blend-mode:exclusion"/>
        <path fill="#FF825C" fill-rule="nonzero" d="M462.383 327.579c-3.036 5.556-9.674 11.385-16.727 7.733a9.556 9.556 0 0 1-2.665-2.165 17.194 17.194 0 0 0 10.247-11.696c1.917-9.77-10.646-14.645-17.124-8.273a14.72 14.72 0 0 0-1.351 18.175c-3.694 1.305-7.89 1.368-11.546.92-3.657-.448-4.501 3.636-.233 4.14 4.897.467 9.838.04 14.582-1.26 1.39 1.448 3.051 2.617 4.826 3.52 11.27 5.733 23.143-1.654 25.654-7.32 2.51-5.666-3.358-7.992-5.663-3.774zm-17.09-11.453c4.685 1.92.296 11.857-5.438 13.207-5.323-8.355.754-15.127 5.439-13.207z"/>
    </g>
</svg>
